<svg width="370" height="350" viewBox="0 0 370 350" fill="none" xmlns="http://www.w3.org/2000/svg">
<path d="M187.882 302.96C265.379 302.96 328.203 301.109 328.203 298.828C328.203 296.545 265.379 294.695 187.882 294.695C110.385 294.695 47.561 296.545 47.561 298.828C47.561 301.109 110.385 302.96 187.882 302.96Z" fill="#F5F8FF"/>
<path d="M207.057 297.156H111.784C104.056 297.156 98.8536 290.886 100.164 283.151L138.535 56.6492C139.845 48.914 147.172 42.6436 154.9 42.6436H250.173C257.901 42.6436 263.104 48.914 261.793 56.6492L223.422 283.151C222.112 290.886 214.785 297.156 207.057 297.156Z" fill="#5CA4E6"/>
<path d="M195.158 297.156H99.8843C92.1566 297.156 86.9542 290.886 88.2645 283.151L126.636 56.6492C127.946 48.914 135.273 42.6436 143.001 42.6436H238.274C246.002 42.6436 251.204 48.914 249.894 56.6492L211.523 283.151C210.212 290.886 202.885 297.156 195.158 297.156Z" fill="#D1E8F7"/>
<path d="M195.705 289.584H101.902C97.8894 289.584 95.1881 286.329 95.8686 282.312L133.955 57.4889C134.636 53.4725 138.44 50.2168 142.453 50.2168H236.256C240.269 50.2168 242.97 53.4725 242.289 57.4889L204.202 282.312C203.522 286.329 199.718 289.584 195.705 289.584Z" fill="white"/>
<path d="M204.584 125.967H114.893L124.241 74.2778C124.853 71.1262 127.902 68.5713 131.051 68.5713H215.737C218.886 68.5713 220.942 71.1262 220.329 74.2778L211.394 120.261C210.781 123.412 207.733 125.967 204.584 125.967Z" fill="url(#paint0_linear_2614_24665)"/>
<path d="M197.355 119.315H63.0816C59.9332 119.315 57.8768 116.76 58.4893 113.609L67.4244 67.6255C68.0369 64.4738 71.0856 61.9189 74.2344 61.9189H208.508C211.656 61.9189 213.713 64.4738 213.1 67.6255L204.165 113.609C203.553 116.76 200.503 119.315 197.355 119.315Z" fill="#FEBB94"/>
<path d="M188.788 283.721L105.508 284.117C102.36 284.117 100.304 281.562 100.916 278.411L109.851 232.428C110.464 229.276 113.512 226.721 116.661 226.721L199.941 226.325C203.089 226.325 205.145 228.88 204.533 232.032L195.598 278.015C194.985 281.166 191.937 283.721 188.788 283.721Z" fill="#FEBB94"/>
<path d="M114.667 269.797C117.037 251.246 134.647 236.207 154.001 236.207C173.355 236.207 187.123 251.246 184.754 269.797" stroke="#FF967C" stroke-width="16.5208" stroke-miterlimit="10" stroke-linecap="round"/>
<path d="M114.667 269.797C117.037 251.246 134.647 236.207 154.001 236.207C163.58 236.207 171.791 239.891 177.354 245.861" stroke="white" stroke-width="16.5208" stroke-miterlimit="10" stroke-linecap="round"/>
<path d="M178.829 219.823H119.199C116.016 219.823 113.865 217.241 114.394 214.055L126.988 138.235C127.517 135.049 130.526 132.467 133.709 132.467H193.339C196.521 132.467 198.673 135.049 198.144 138.235L185.55 214.055C185.021 217.241 182.012 219.823 178.829 219.823Z" fill="url(#paint1_linear_2614_24665)"/>
<path d="M137.561 172.561H129.431C128.984 172.577 128.555 172.744 128.215 173.035C127.875 173.327 127.645 173.726 127.562 174.166L123.146 200.75C123.103 200.947 123.106 201.151 123.154 201.347C123.202 201.542 123.294 201.724 123.423 201.879C123.551 202.034 123.714 202.157 123.897 202.239C124.081 202.322 124.281 202.361 124.482 202.354H132.612C133.06 202.339 133.489 202.172 133.828 201.88C134.168 201.589 134.398 201.19 134.482 200.75L138.897 174.166C138.94 173.969 138.937 173.765 138.889 173.569C138.842 173.373 138.749 173.191 138.621 173.037C138.492 172.882 138.33 172.759 138.146 172.676C137.962 172.594 137.762 172.555 137.561 172.561Z" fill="white"/>
<path d="M152.395 181.658H144.265C143.817 181.673 143.389 181.84 143.049 182.132C142.709 182.423 142.479 182.822 142.395 183.262L139.491 200.751C139.448 200.947 139.451 201.152 139.498 201.347C139.546 201.543 139.638 201.725 139.767 201.879C139.896 202.034 140.058 202.158 140.242 202.24C140.426 202.322 140.626 202.361 140.827 202.355H148.957C149.404 202.34 149.833 202.173 150.173 201.881C150.513 201.589 150.743 201.191 150.826 200.751L153.731 183.262C153.774 183.065 153.771 182.861 153.723 182.666C153.675 182.47 153.583 182.288 153.455 182.133C153.326 181.979 153.163 181.855 152.98 181.773C152.796 181.69 152.596 181.651 152.395 181.658Z" fill="white"/>
<path d="M172.031 156.066H163.901C163.454 156.081 163.025 156.248 162.685 156.54C162.346 156.832 162.115 157.23 162.032 157.67L154.876 200.751C154.834 200.948 154.836 201.152 154.884 201.347C154.932 201.543 155.024 201.725 155.153 201.88C155.282 202.034 155.444 202.158 155.628 202.24C155.812 202.323 156.012 202.362 156.212 202.355H164.343C164.79 202.34 165.219 202.173 165.558 201.881C165.898 201.59 166.129 201.191 166.212 200.751L173.368 157.67C173.41 157.473 173.407 157.269 173.36 157.074C173.312 156.878 173.22 156.696 173.091 156.541C172.962 156.387 172.8 156.263 172.616 156.181C172.432 156.099 172.232 156.059 172.031 156.066Z" fill="white"/>
<path d="M186.023 167.232H177.892C177.445 167.247 177.016 167.414 176.677 167.706C176.337 167.998 176.107 168.396 176.023 168.836L170.723 200.75C170.68 200.946 170.682 201.151 170.731 201.346C170.778 201.542 170.87 201.724 170.999 201.878C171.128 202.033 171.29 202.157 171.474 202.239C171.658 202.321 171.858 202.36 172.059 202.354H180.189C180.636 202.339 181.065 202.172 181.405 201.88C181.745 201.588 181.975 201.19 182.058 200.75L187.359 168.836C187.402 168.639 187.399 168.435 187.351 168.24C187.303 168.044 187.211 167.862 187.082 167.707C186.953 167.553 186.791 167.429 186.607 167.347C186.424 167.265 186.224 167.225 186.023 167.232Z" fill="white"/>
<path d="M132.938 141.796H154.951" stroke="white" stroke-width="10" stroke-miterlimit="10" stroke-linecap="round"/>
<path d="M131.696 149.277H142.702" stroke="white" stroke-width="10" stroke-miterlimit="10" stroke-linecap="round"/>
<path opacity="0.6" d="M125.519 207.772H129.776" stroke="white" stroke-width="6" stroke-miterlimit="10" stroke-linecap="round"/>
<path opacity="0.6" d="M141.864 207.772H146.121" stroke="white" stroke-width="6" stroke-miterlimit="10" stroke-linecap="round"/>
<path opacity="0.6" d="M157.249 207.772H161.506" stroke="white" stroke-width="6" stroke-miterlimit="10" stroke-linecap="round"/>
<path opacity="0.6" d="M173.095 207.772H177.352" stroke="white" stroke-width="6" stroke-miterlimit="10" stroke-linecap="round"/>
<path d="M257.047 219.823H197.417C194.234 219.823 192.083 217.241 192.612 214.055L205.206 138.235C205.735 135.049 208.744 132.467 211.927 132.467H271.557C274.74 132.467 276.891 135.049 276.362 138.235L263.768 214.055C263.239 217.241 260.23 219.823 257.047 219.823Z" fill="url(#paint2_linear_2614_24665)"/>
<path d="M214.234 183.993H206.104C205.657 184.008 205.228 184.175 204.889 184.467C204.549 184.758 204.318 185.157 204.235 185.597L201.364 200.752C201.321 200.948 201.324 201.153 201.372 201.348C201.42 201.544 201.512 201.726 201.641 201.88C201.77 202.035 201.932 202.159 202.116 202.241C202.299 202.323 202.499 202.362 202.7 202.356H210.831C211.278 202.341 211.707 202.174 212.046 201.882C212.386 201.59 212.617 201.192 212.7 200.752L215.571 185.597C215.614 185.4 215.611 185.196 215.563 185C215.515 184.805 215.423 184.623 215.294 184.468C215.165 184.313 215.003 184.19 214.819 184.108C214.636 184.025 214.436 183.986 214.234 183.993Z" fill="white"/>
<path d="M233.683 160.526H225.553C225.106 160.541 224.677 160.708 224.337 161C223.998 161.291 223.767 161.69 223.684 162.13L217.709 200.752C217.666 200.948 217.669 201.153 217.717 201.348C217.765 201.544 217.856 201.726 217.985 201.88C218.114 202.035 218.277 202.159 218.46 202.241C218.644 202.323 218.844 202.362 219.045 202.356H227.175C227.623 202.341 228.051 202.174 228.391 201.882C228.731 201.59 228.961 201.192 229.044 200.752L235.02 162.13C235.062 161.933 235.06 161.729 235.012 161.534C234.964 161.338 234.872 161.156 234.743 161.001C234.614 160.847 234.452 160.723 234.268 160.641C234.085 160.559 233.885 160.519 233.683 160.526Z" fill="white"/>
<path d="M247.56 171.553H239.429C238.982 171.569 238.554 171.736 238.214 172.027C237.874 172.319 237.643 172.717 237.56 173.157L233.095 200.752C233.052 200.949 233.055 201.153 233.102 201.348C233.15 201.544 233.242 201.726 233.371 201.881C233.5 202.035 233.663 202.159 233.846 202.241C234.03 202.323 234.23 202.363 234.431 202.356H242.561C243.008 202.341 243.437 202.174 243.777 201.882C244.117 201.59 244.347 201.192 244.43 200.752L248.896 173.157C248.939 172.961 248.936 172.757 248.888 172.561C248.84 172.366 248.748 172.183 248.62 172.029C248.491 171.874 248.328 171.751 248.144 171.668C247.961 171.586 247.761 171.547 247.56 171.553Z" fill="white"/>
<path d="M264.241 167.232H256.11C255.663 167.247 255.234 167.414 254.895 167.706C254.555 167.998 254.324 168.396 254.241 168.836L248.941 200.75C248.898 200.946 248.9 201.151 248.948 201.346C248.996 201.542 249.088 201.724 249.217 201.878C249.346 202.033 249.508 202.157 249.692 202.239C249.876 202.321 250.075 202.36 250.277 202.354H258.407C258.854 202.339 259.283 202.172 259.623 201.88C259.962 201.588 260.193 201.19 260.276 200.75L265.577 168.836C265.619 168.639 265.617 168.435 265.569 168.24C265.521 168.044 265.429 167.862 265.3 167.707C265.171 167.553 265.009 167.429 264.825 167.347C264.642 167.265 264.441 167.225 264.241 167.232Z" fill="white"/>
<path d="M211.157 141.796H233.169" stroke="white" stroke-width="10" stroke-miterlimit="10" stroke-linecap="round"/>
<path d="M209.914 149.277H220.92" stroke="white" stroke-width="10" stroke-miterlimit="10" stroke-linecap="round"/>
<path opacity="0.6" d="M203.737 207.772H207.994" stroke="white" stroke-width="6" stroke-miterlimit="10" stroke-linecap="round"/>
<path opacity="0.6" d="M220.082 207.772H224.339" stroke="white" stroke-width="6" stroke-miterlimit="10" stroke-linecap="round"/>
<path opacity="0.6" d="M235.468 207.772H239.725" stroke="white" stroke-width="6" stroke-miterlimit="10" stroke-linecap="round"/>
<path opacity="0.6" d="M251.313 207.772H255.571" stroke="white" stroke-width="6" stroke-miterlimit="10" stroke-linecap="round"/>
<path d="M3.93643 305.036L20.8689 340.491L18.7691 341.496C18.0602 341.835 17.2461 341.878 16.5055 341.616C15.765 341.355 15.1585 340.809 14.82 340.1L0.441275 309.994C0.102831 309.284 0.059342 308.47 0.320688 307.728C0.582429 306.987 1.12726 306.38 1.83618 306.041L3.93643 305.036Z" fill="#71C8EA"/>
<path d="M22.3714 297.03L10.6855 301.865L17.2413 311.145L27.6011 307.981L22.3714 297.03Z" fill="#FFCCB3"/>
<path d="M14.9073 302.234C14.9073 302.234 19.4695 309.287 20.1579 313.228C20.8462 317.169 23.2031 337.104 22.5689 338.901C22.113 340.192 20.4572 340.747 19.4067 340.864C19.1762 340.889 18.9437 340.841 18.7416 340.727C18.5396 340.613 18.3775 340.44 18.2787 340.23L2.90829 308.047C2.6513 307.51 2.61532 306.893 2.80747 306.33C3.00002 305.767 3.40528 305.302 3.93707 305.034C6.06341 303.965 9.3162 302.363 10.6858 301.864C12.8027 301.092 14.1999 301.097 14.9073 302.234Z" fill="#5661AE"/>
<path d="M97.6306 319.107L81.751 348.448C81.3766 349.139 80.7436 349.653 79.9908 349.877C79.238 350.101 78.4271 350.017 77.7363 349.642L75.6895 348.532L94.3909 313.979L96.4374 315.089C97.1281 315.464 97.6417 316.097 97.8655 316.851C98.0893 317.604 98.005 318.416 97.6306 319.107Z" fill="#71C8EA"/>
<path d="M76.384 305.05L87.8109 310.47L80.7948 319.406L70.6079 315.722L76.384 305.05Z" fill="#FFCCB3"/>
<path d="M83.5755 310.627C83.5755 310.627 78.6629 317.44 77.7765 321.342C76.8904 325.243 73.5301 345.033 74.0726 346.86C74.4624 348.173 76.0882 348.81 77.1316 348.98C77.3605 349.017 77.595 348.981 77.8026 348.878C78.0101 348.774 78.1806 348.609 78.2901 348.405L95.2661 317.04C95.5496 316.516 95.6168 315.903 95.4531 315.33C95.2894 314.758 94.9079 314.273 94.3907 313.979C92.3209 312.804 89.1527 311.039 87.8104 310.471C85.7351 309.594 84.3394 309.528 83.5755 310.627Z" fill="#5661AE"/>
<path d="M110.809 263.255C110.809 263.255 115.183 284.998 111.789 289.259L25.2858 311.429L17.9092 297.599L68.4232 274.656L78.5398 260.777L110.809 263.255Z" fill="#D1E8F7"/>
<path d="M88.9193 278.771L69.8336 285.16L60.9277 288.897L72.5091 299.326L62.1549 301.668L33.9126 278.771H88.9193Z" fill="#5CA4E6"/>
<path d="M23.3301 295.787L23.9172 297.829L37.3285 308.306L49.9264 305.23C49.9264 305.23 25.6237 293.653 23.3301 295.787Z" fill="#5CA4E6"/>
<path d="M47.6081 261.988C47.6081 261.988 23.1479 260.66 11.024 261.727C3.21726 262.414 0.402961 282.409 6.63295 286.047L73.4939 320.312L81.373 306.062L38.2415 276.84L69.0989 272.496L47.6081 261.988Z" fill="#D1E8F7"/>
<path d="M13.0799 287.748C20.3035 287.748 26.1595 281.887 26.1595 274.656C26.1595 267.426 20.3035 261.564 13.0799 261.564C5.85596 261.564 0 267.426 0 274.656C0 281.887 5.85596 287.748 13.0799 287.748Z" fill="#D1E8F7"/>
<path d="M109.616 289.44C116.839 289.44 122.695 283.579 122.695 276.349C122.695 269.118 116.839 263.257 109.616 263.257C102.392 263.257 96.5356 269.118 96.5356 276.349C96.5356 283.579 102.392 289.44 109.616 289.44Z" fill="#D1E8F7"/>
<path d="M73.7851 214.57C72.4073 207.761 75.6478 207.937 76.7264 206.854C76.7264 206.854 80.7719 203.515 83.8547 206.628C87.1177 209.92 105.823 235.497 105.823 235.497L94.1191 246.271L91.9192 243.644L86.2206 236.841L80.1254 229.57L79.3683 228.743L71.146 219.421C71.146 219.421 74.5644 218.155 73.7851 214.57Z" fill="#5661AE"/>
<path d="M80.2766 221.41C84.9871 219.831 87.5262 214.729 85.9487 210.014C84.3711 205.3 79.2739 202.758 74.5633 204.337C69.8532 205.916 67.3136 211.018 68.8916 215.732C70.4692 220.447 75.5664 222.989 80.2766 221.41Z" fill="#5661AE"/>
<path d="M79.4768 228.706C79.2407 227.283 78.7686 224.437 78.2606 221.843L75.5605 209.288C75.5605 209.288 82.8126 220.017 86.1539 227.489C88.6282 233.089 91.4987 238.797 91.9735 243.625L86.2753 236.823L80.1802 229.552L79.4768 228.706Z" fill="#465393"/>
<path d="M117.513 206.703C120.294 201.626 118.958 200.764 120.141 197.875C121.306 195.057 119.237 188.069 121.218 189.022C123.199 189.974 123.812 192.507 123.812 192.507C125.167 190.107 126.415 185.693 129.658 185.188C132.903 184.683 133.19 185.705 135.028 187.215C139.919 191.288 133.682 197.41 132.641 199.741C131.971 201.202 127.05 205.657 126.505 206.631L124.028 210.227L117.513 206.703Z" fill="#FFCCB3"/>
<path d="M127.069 192.82L131.022 185.516L127.069 192.82Z" fill="#E56441"/>
<path d="M127.069 192.82L131.022 185.516" stroke="#E56441" stroke-width="0.94666" stroke-linecap="round"/>
<path d="M129.659 194.003L133.967 187.2L129.659 194.003Z" fill="#E56441"/>
<path d="M129.659 194.003L133.967 187.2" stroke="#E56441" stroke-width="0.94666" stroke-linecap="round"/>
<path d="M132.736 195.311L135.198 191.191L132.736 195.311Z" fill="#E56441"/>
<path d="M132.736 195.311L135.198 191.191" stroke="#E56441" stroke-width="0.94666" stroke-linecap="round"/>
<path d="M126.092 199.251C126.071 196.721 124.555 193.661 124.555 193.661L126.092 199.251Z" fill="#E56441"/>
<path d="M126.092 199.251C126.071 196.721 124.555 193.661 124.555 193.661" stroke="#E56441" stroke-width="0.94666" stroke-linecap="round"/>
<path d="M94.0205 235.294L117.82 203.572C117.971 203.386 118.186 203.263 118.424 203.225C118.661 203.189 118.904 203.241 119.105 203.372L125.336 207.497C125.633 207.698 125.843 208.002 125.928 208.35C126.013 208.698 125.966 209.065 125.796 209.38L106.657 244.707L94.0205 235.294Z" fill="#5661AE"/>
<path d="M99.8027 248.693C104.204 248.693 107.773 245.122 107.773 240.716C107.773 236.311 104.204 232.739 99.8027 232.739C95.4013 232.739 91.833 236.311 91.833 240.716C91.833 245.122 95.4013 248.693 99.8027 248.693Z" fill="#5661AE"/>
<path d="M64.4613 199.843C64.4613 199.843 77.8168 203.38 80.1092 204.298C82.402 205.216 82.5546 208.887 82.7076 211.488C82.8603 214.089 82.347 272.495 82.347 272.495L52.7901 271.358L30.686 258.407C30.686 258.407 31.6472 212.064 31.9528 209.922C32.2585 207.78 29.8565 205.936 32.4601 204.858L49.1965 200.432L64.4613 199.843Z" fill="#5661AE"/>
<path d="M42.2206 220.648L42.4586 263.801L29.752 249.626L35.8997 219.306L42.2206 220.648Z" fill="#465393"/>
<path d="M47.0171 201.092C47.0171 201.092 45.1264 204.897 47.0171 207.523C48.9078 210.148 56.4769 212.699 61.6481 212.623C66.8188 212.549 69.5588 207.614 67.2146 200.705L58.6503 198.297L49.1968 200.432L47.0171 201.092Z" fill="#465393"/>
<path d="M68.4237 168.292C68.4237 168.292 72.1474 176.335 68.1758 177.996C64.2043 179.657 64.6669 168.682 68.4237 168.292Z" fill="#93523E"/>
<path d="M64.2227 194.028L65.3001 206.187C65.3001 206.187 66.3329 207.817 62.3107 208.673C59.7233 209.223 52.7559 206.475 51.4041 205.651C50.8293 205.346 50.3789 204.849 50.1306 204.247C49.8823 203.645 49.8515 202.976 50.0433 202.353C50.4541 200.865 52.1565 188.47 52.1565 188.47L64.2227 194.028Z" fill="#FFCCB3"/>
<path d="M64.4305 196.373L58.0127 193.199L65.1675 204.688L64.4305 196.373Z" fill="#FF967C"/>
<path d="M66.2849 170.62C66.2849 170.62 70.0513 180.074 71.4174 186.707C72.7957 193.398 70.5966 195.069 67.6949 196.053C65.406 196.83 61.7511 197.448 59.265 196.669C54.7312 195.249 50.2958 191.148 49.235 190.306C47.5926 189.002 45.9712 183.088 48.3782 179.742C50.7857 176.395 60.2704 165.88 66.2849 170.62Z" fill="#FFCCB3"/>
<path d="M61.4363 183.669C61.9372 183.471 62.0993 182.691 61.7984 181.926C61.4975 181.16 60.8479 180.7 60.347 180.897C59.846 181.095 59.6839 181.875 59.9844 182.64C60.2853 183.405 60.9353 183.866 61.4363 183.669Z" fill="#080B09"/>
<path d="M68.3209 180.907C68.8219 180.71 68.984 179.93 68.6831 179.165C68.3826 178.4 67.7326 177.939 67.2316 178.136C66.7307 178.334 66.5686 179.114 66.8695 179.879C67.17 180.644 67.82 181.105 68.3209 180.907Z" fill="#080B09"/>
<path d="M65.7953 182.212C65.7953 182.212 65.1836 184.065 66.4694 183.884C67.6915 183.67 68.521 184.274 67.4531 185.516" fill="#E56441"/>
<path d="M65.7953 182.212C65.7953 182.212 65.1836 184.065 66.4694 183.884C67.6915 183.67 68.521 184.274 67.4531 185.516" stroke="#E56441" stroke-width="0.94666" stroke-linecap="round"/>
<path d="M67.5128 187.155L67.5192 187.154L67.5255 187.152C67.5433 187.146 67.5623 187.146 67.58 187.15C67.5982 187.154 67.6148 187.163 67.6283 187.177C67.6417 187.19 67.6516 187.206 67.6568 187.224C67.6615 187.242 67.6619 187.261 67.6571 187.279L67.6532 187.294L67.6516 187.31C67.5729 188.121 67.3713 188.603 67.1266 188.873C66.8901 189.135 66.5936 189.223 66.2571 189.197C65.912 189.17 65.5328 189.025 65.1655 188.825C64.8025 188.627 64.4653 188.385 64.2047 188.177C64.1869 188.16 64.1739 188.139 64.1667 188.116C64.1588 188.092 64.1581 188.066 64.1644 188.041C64.1703 188.016 64.1833 187.993 64.2011 187.976C64.2193 187.957 64.2419 187.945 64.2668 187.939L64.2687 187.938C65.2627 187.686 66.762 187.332 67.5128 187.155Z" fill="#E56441" stroke="#E56441"/>
<path d="M57.0746 180.429L57.1687 180.561C57.2893 180.765 57.4858 180.914 57.7155 180.974C57.9448 181.034 58.1892 181.001 58.3944 180.882L61.8686 178.739C62.041 178.643 62.1706 178.485 62.2323 178.297C62.2936 178.109 62.2825 177.904 62.2007 177.724C62.1556 177.612 62.0876 177.51 62.0002 177.426C61.9132 177.341 61.8093 177.276 61.695 177.235C61.5811 177.194 61.4597 177.178 61.3388 177.187C61.2178 177.197 61.1003 177.231 60.994 177.29L57.4257 179.3C57.3272 179.35 57.2399 179.419 57.1683 179.502C57.0971 179.587 57.0434 179.684 57.0109 179.79C56.9781 179.895 56.9667 180.006 56.9777 180.115C56.9888 180.225 57.0216 180.332 57.0746 180.429Z" fill="#080B09"/>
<path d="M69.0762 174.935L64.999 175.313C64.8785 175.325 64.7618 175.364 64.657 175.425C64.5523 175.486 64.4617 175.568 64.3913 175.667C64.321 175.766 64.2723 175.878 64.2486 175.997C64.2249 176.117 64.2265 176.239 64.2534 176.357C64.2885 176.552 64.3953 176.726 64.5527 176.846C64.7104 176.966 64.9069 177.022 65.1038 177.003L69.1786 176.787C69.415 176.768 69.6349 176.657 69.7895 176.477C69.9441 176.296 70.0211 176.062 70.0038 175.825L70.0065 175.663C69.9951 175.553 69.9614 175.447 69.9081 175.35C69.8547 175.254 69.7823 175.169 69.6958 175.101C69.6088 175.033 69.5091 174.984 69.4028 174.955C69.2964 174.926 69.1853 174.919 69.0762 174.935Z" fill="#080B09"/>
<path d="M61.6097 172.506C61.6097 172.506 59.5747 176.381 55.8827 177.531C52.1906 178.68 54.2082 184.513 54.2082 184.513C54.2082 184.513 51.6766 181.992 48.7666 183.411C45.8562 184.83 48.0652 190.398 52.0858 190.469L50.9922 196.735C50.9922 196.735 48.956 194.198 46.8147 192.839C44.6729 191.481 36.98 186.21 40.3783 179.266C40.3783 179.266 37.7194 169.517 45.0117 164.463C52.3041 159.408 58.6159 161.316 58.6159 161.316C58.6159 161.316 60.3544 158.555 64.3841 159.119C68.4138 159.683 69.343 166.956 68.0086 169.586C66.6741 172.217 64.4996 173.335 61.6097 172.506Z" fill="#93523E"/>
<path d="M31.2288 211.365C36.3573 206.683 37.8716 209.556 39.3539 209.926C39.3539 209.926 44.2945 211.684 43.2104 215.931C42.0646 220.424 29.7517 249.627 29.7517 249.627L14.5039 245.113L15.626 241.873L18.5289 233.485L21.6294 224.516L21.9497 223.44L25.7153 211.591C25.7153 211.591 28.5569 213.875 31.2288 211.365Z" fill="#5661AE"/>
<path d="M41.3853 219.466C44.616 215.689 44.1755 210.006 40.402 206.772C36.6285 203.539 30.9505 203.98 27.7202 207.757C24.4896 211.533 24.9296 217.217 28.7035 220.45C32.477 223.683 38.1547 223.243 41.3853 219.466Z" fill="#5661AE"/>
<path d="M28.2419 242.456L56.5503 270.221C56.7152 270.396 56.8093 270.626 56.8148 270.866C56.8203 271.106 56.7369 271.34 56.5803 271.523L51.6796 277.167C51.442 277.435 51.1134 277.604 50.7576 277.643C50.4021 277.682 50.0447 277.587 49.7553 277.376L17.2666 253.764L28.2419 242.456Z" fill="#5661AE"/>
<path d="M22.1152 255.459C26.5169 255.459 30.0852 251.888 30.0852 247.482C30.0852 243.076 26.5169 239.505 22.1152 239.505C17.7138 239.505 14.1455 243.076 14.1455 247.482C14.1455 251.888 17.7138 255.459 22.1152 255.459Z" fill="#5661AE"/>
<path d="M68.1704 237.105L52.8072 279.708H21.917C21.917 278.407 22.4333 277.159 23.3522 276.24C24.2715 275.32 25.5177 274.803 26.8173 274.803H49.1653L62.4315 237.105H68.1704Z" fill="white"/>
<path d="M68.1704 237.105H109.616L93.5869 279.708H52.8071L68.1704 237.105Z" fill="url(#paint3_linear_2614_24665)"/>
<path d="M126.042 98.1693C126.042 98.1693 132.948 96.7134 135.138 100.075C137.328 103.436 139.519 109.751 144.484 108.932C149.448 108.113 153.245 91.5977 158.21 91.7441C163.174 91.8902 160.984 102.706 166.387 102.852C171.79 102.998 170.475 96.8595 174.856 96.8595C179.237 96.8595 177.777 110.013 183.472 110.159C189.167 110.306 188.582 93.2056 197.198 93.4977" stroke="white" stroke-width="5" stroke-miterlimit="10" stroke-linecap="round"/>
<path d="M105.883 95.8986C109.4 87.2521 106.014 77.7014 98.3204 74.5663C90.6267 71.4313 81.5389 75.8992 78.022 84.5457C74.5051 93.1922 77.8911 102.743 85.5848 105.878C93.2785 109.013 102.367 104.545 105.883 95.8986Z" stroke="#FF967C" stroke-width="16.5208" stroke-miterlimit="10" stroke-linecap="round"/>
<path d="M99.1163 104.265C95.0569 106.945 90.0826 107.711 85.5848 105.878C77.8911 102.743 74.5051 93.1922 78.022 84.5457C81.5389 75.8992 90.6267 71.4313 98.3204 74.5663" stroke="white" stroke-width="16.5208" stroke-miterlimit="10" stroke-linecap="round"/>
<path d="M131.232 73.5635H161.619" stroke="white" stroke-width="10" stroke-miterlimit="10" stroke-linecap="round"/>
<path opacity="0.6" d="M129.792 81.9521H142.156" stroke="white" stroke-width="10" stroke-miterlimit="10" stroke-linecap="round"/>
<path d="M361.29 282.088C361.203 282.098 361.164 282.147 361.211 282.186C361.172 282.234 361.172 282.234 361.183 282.322C360.998 282.925 360.867 283.544 360.792 284.17L368.288 290.201L369.119 289.267C369.119 289.267 366.351 285.841 365.315 284.845C364.868 284.405 364.469 284.005 364.07 283.605C363.722 283.244 363.409 282.834 363.109 282.511C362.69 281.936 361.476 282.157 361.464 282.069C361.417 282.03 361.29 282.088 361.29 282.088Z" fill="#233B62"/>
<path d="M304.604 229.688L311.843 236.709L352.318 275.832L353.057 276.506L353.378 277.003L353.425 277.042L359.158 285.737L359.799 286.732L360.012 287.063L363.891 292.986L360.696 294.577L359.771 295.033L358.466 295.664L356.406 296.731L356.371 296.779L354.184 297.905L354.077 297.739L349.096 288.208C348.131 286.367 346.775 284.759 345.126 283.493L301.113 249.77L292.747 243.36L304.604 229.688Z" fill="#FFCCB3"/>
<path d="M358.605 277.365C356.664 276.463 354.485 275.657 352.358 275.783C353.639 276.907 354.224 278.909 355.074 280.368C356.818 283.371 361.29 288.953 359.004 293.696C357.719 296.361 354.129 297.777 354.078 297.738C353.477 300.475 350.5 311.617 356.438 305.158C359.755 301.551 363.045 297.699 364.698 293.874C365.378 292.306 363.943 290.742 363.239 289.419C362.337 287.415 360.993 284.762 361.163 282.545L361.199 282.496C361.297 282.343 368.988 289.233 369.118 289.266C369.383 288.838 370 287.972 370 287.972C370 287.972 358.973 277.502 358.605 277.365Z" fill="#1C85E8"/>
<path d="M275.785 313.813C275.716 313.758 275.653 313.766 275.661 313.828C275.599 313.835 275.599 313.835 275.545 313.905C274.992 314.207 274.466 314.558 273.975 314.953L275.121 324.512L276.366 324.425C276.366 324.425 276.782 320.04 276.735 318.6C276.723 317.973 276.718 317.408 276.713 316.843C276.715 316.34 276.78 315.83 276.79 315.389C276.894 314.685 275.869 313.992 275.924 313.922C275.916 313.86 275.785 313.813 275.785 313.813Z" fill="#233B62"/>
<path d="M271.876 236.682L272.143 246.766L273.743 303.063L273.8 304.061L273.681 304.641L273.688 304.703L271.712 314.931L271.475 316.09L271.396 316.477L270.032 323.427L266.635 322.327L265.655 322.005L264.281 321.541L262.066 320.865L262.004 320.872L259.657 320.149L259.697 319.955L262.794 309.656C263.389 307.663 263.544 305.564 263.249 303.506L255.35 248.594L253.847 238.155L271.876 236.682Z" fill="#FFCCB3"/>
<path d="M277.164 308.557C276.408 306.554 275.414 304.454 273.805 303.054C273.936 304.756 272.956 306.596 272.542 308.232C271.691 311.6 270.989 318.721 266.041 320.512C263.262 321.518 259.704 320.016 259.697 319.954C257.355 321.49 247.441 327.369 256.199 326.909C261.089 326.652 266.133 326.201 269.987 324.625C271.568 323.979 271.635 321.857 272.057 320.418C272.813 318.355 273.703 315.516 275.374 314.05L275.436 314.043C275.613 314.001 276.296 324.31 276.366 324.424C276.854 324.303 277.899 324.115 277.899 324.115C277.899 324.115 277.332 308.914 277.164 308.557Z" fill="#1C85E8"/>
<path d="M260.971 161.017L246.663 221.493L246.637 225.787L258.272 297.397L276.797 295.39L271.423 226.998L286.161 191.314L283.182 162.051L260.971 161.017Z" fill="#1F2D49"/>
<path d="M258.968 236.183C265.878 236.183 271.48 230.577 271.48 223.66C271.48 216.745 265.878 211.138 258.968 211.138C252.058 211.138 246.457 216.745 246.457 223.66C246.457 230.577 252.058 236.183 258.968 236.183Z" fill="#1F2D49"/>
<path d="M276.119 215.63L272.591 185.75L271.423 226.999L276.119 215.63Z" fill="#0D1B33"/>
<path d="M299.594 160.829C299.594 160.829 306.264 172.047 306.351 181.441C306.486 195.54 301.405 220.821 301.405 220.821L345.763 265.697L335.202 281.545C335.202 281.545 297.352 250.111 281.338 235.18L277.75 227.911L272.59 185.75L280.478 160.829H299.594Z" fill="#1F2D49"/>
<path d="M260.971 161.017L299.824 161.416L303.599 169.237L260.315 163.792L260.971 161.017Z" fill="#0D1B33"/>
<path d="M290.151 238.814C297.06 238.814 302.663 233.208 302.663 226.291C302.663 219.375 297.06 213.769 290.151 213.769C283.24 213.769 277.639 219.375 277.639 226.291C277.639 233.208 283.24 238.814 290.151 238.814Z" fill="#1F2D49"/>
<path d="M256.436 77.9117C256.436 77.9117 256.957 83.7247 255.425 89.3126C253.892 94.9004 242.289 106.733 252.579 116.375C262.869 126.016 275.457 100.159 275.457 100.159L271.516 88.2168L257.889 74.0264L256.436 77.9117Z" fill="#1F2D49"/>
<path d="M287.829 79.2695C287.829 79.2695 290.917 83.196 297.953 86.4055C304.857 89.5552 312.29 94.7322 310.76 106.017C309.226 117.302 288.817 108.537 282.821 102.073C276.825 95.6088 277.65 84.0675 277.65 84.0675L287.829 79.2695Z" fill="#1F2D49"/>
<path d="M272.045 100.415C272.045 100.415 264.213 103.517 263.017 104.474C261.822 105.432 260.686 113.246 258.653 116.956C256.62 120.667 253.646 127.515 257.99 133.806C262.334 140.096 261.872 145.091 261.872 145.091L260.947 160.871L298.381 161.561C298.713 161.572 299.041 161.512 299.345 161.386C299.65 161.26 299.923 161.071 300.152 160.83C300.377 160.59 300.547 160.305 300.658 159.993C300.765 159.681 300.804 159.349 300.777 159.021C300.361 154.42 298.46 147.959 298.309 140.633C298.108 130.705 297.958 97.531 297.958 97.531L281.649 97.0186C278.364 97.5856 272.045 100.415 272.045 100.415Z" fill="#FEBB94"/>
<path d="M291.538 111.092C291.538 111.092 286.083 116.071 285.762 119.764C285.441 123.458 284.699 133.757 277.687 134.785C269.094 136.044 266.845 137.27 270.828 138.234C274.812 139.197 283.853 137.636 283.853 141.767C283.853 144.707 287.366 146.906 289.131 145.3C290.896 143.694 304.956 119.282 291.538 111.092Z" fill="#FF967C"/>
<path d="M225.743 115.265L222.786 111.476C222.166 110.589 221.343 109.864 220.385 109.362C218.93 108.633 216.699 107.273 215.923 105.913C214.638 103.751 209.574 97.9129 213.967 93.375C215.593 91.7002 215.187 92.0963 218.437 92.1466C221.688 92.1965 222.187 95.5725 223.811 97.7823C223.811 97.7823 224.176 95.2334 225.971 94.0687C227.767 92.904 226.575 100.017 227.957 102.713C229.338 105.409 228.222 106.428 231.494 111.164L225.743 115.265Z" fill="#FFCCB3"/>
<path d="M217.942 92.5361L220.584 98.5344L217.942 92.5361Z" fill="#E56441"/>
<path d="M217.942 92.5361L220.584 98.5344" stroke="#E56441" stroke-width="0.94666" stroke-linecap="round"/>
<path d="M214.498 93.6025L218.158 99.9898L214.498 93.6025Z" fill="#E56441"/>
<path d="M214.498 93.6025L218.158 99.9898" stroke="#E56441" stroke-width="0.94666" stroke-linecap="round"/>
<path d="M212.336 97.8018L215.222 101.615L212.336 97.8018Z" fill="#E56441"/>
<path d="M212.336 97.8018L215.222 101.615" stroke="#E56441" stroke-width="0.94666" stroke-linecap="round"/>
<path d="M223.13 99.1406C223.13 99.1406 222.013 102.345 222.206 104.871L223.13 99.1406Z" fill="#E56441"/>
<path d="M223.13 99.1406C223.13 99.1406 222.013 102.345 222.206 104.871" stroke="#E56441" stroke-width="0.94666" stroke-linecap="round"/>
<path d="M264.921 103.442C261.884 104.496 257.651 106.632 256.506 109.016L246.385 132.093L229.531 106.459L223.148 113.188L238.888 145.773C241.765 152.939 249.071 155.631 254.364 147.908L262.82 134.614L264.921 103.442Z" fill="#FEBB94"/>
<path d="M260.604 123.306C260.604 123.306 259.692 121.731 259.692 129.955L254.364 147.908L262.82 134.613C269.604 125.485 264.244 123.046 260.604 123.306Z" fill="#FF967C"/>
<path d="M279.158 112.421L251.202 123.566C250.333 123.912 249.91 124.898 250.256 125.767L264.248 160.928C264.594 161.797 265.579 162.222 266.447 161.875L294.404 150.729C295.273 150.383 295.696 149.398 295.35 148.528L281.358 113.368C281.012 112.498 280.027 112.074 279.158 112.421Z" fill="#1C85E8"/>
<path d="M255.468 126.871L266.996 122.275" stroke="white" stroke-width="4" stroke-miterlimit="10" stroke-linecap="round"/>
<path d="M257.208 131.004L262.463 128.909" stroke="white" stroke-width="4" stroke-miterlimit="10" stroke-linecap="round"/>
<path d="M271.054 92.1486L271.494 104.483C271.494 104.483 270.891 107.184 273.661 106.885C276.43 106.585 280.159 104.402 282.255 102.005C284.351 99.6075 284.208 99.4152 283.309 97.8417C282.411 96.2686 278.194 84.2773 278.194 84.2773L271.054 92.1486Z" fill="#FFCCB3"/>
<path d="M271.117 93.1837L276.224 89.9287C276.224 89.9287 273.961 99.8685 271.494 104.484L271.117 93.1837Z" fill="#FCBA9F"/>
<path d="M257.348 73.69C257.348 73.69 257.267 85.9654 262.558 92.1433C266.009 96.1719 269.639 95.6377 275.694 89.0051C281.246 82.9237 282.025 79.7543 282.025 79.7543L278.191 67.7111C278.191 67.7111 257.971 62.5183 257.348 73.69Z" fill="#FFCCB3"/>
<path d="M262.614 70.8434C262.614 70.8434 264.83 76.2306 268.947 77.736C273.062 79.2414 274.139 82.0409 274.139 82.0409C274.139 82.0409 274.929 77.4349 278.164 77.6023C281.399 77.7697 280.741 83.4861 278.734 85.3841C278.734 85.3841 281.149 89.8682 283.197 93.1845L292.167 84.274C292.167 84.274 287.546 78.9264 286.529 74.6235C285.513 70.3207 282.225 58.8015 269.687 59.5645C254.966 60.46 255.811 72.4331 256.437 79.0831C256.437 79.0831 261.053 77.3114 262.614 70.8434Z" fill="#1F2D49"/>
<path d="M264.207 88.3489L267.785 86.5918C267.788 86.612 267.791 86.6337 267.794 86.6563C267.818 86.8443 267.829 87.1027 267.778 87.3864C267.678 87.9417 267.336 88.6156 266.319 89.0533C265.666 89.265 265.11 89.0561 264.701 88.7783C264.496 88.6386 264.333 88.4842 264.221 88.3643C264.216 88.3592 264.211 88.354 264.207 88.3489Z" fill="#E56441" stroke="#E56441"/>
<path d="M260.308 83.3628C260.761 83.2508 260.994 82.6196 260.829 81.9523C260.665 81.2851 260.165 80.8348 259.712 80.9468C259.26 81.0584 259.027 81.69 259.191 82.3572C259.356 83.024 259.856 83.4744 260.308 83.3628Z" fill="#080B09"/>
<path d="M267.014 81.807C267.466 81.6954 267.699 81.0638 267.535 80.3966C267.37 79.7297 266.87 79.2794 266.418 79.391C265.966 79.503 265.732 80.1342 265.897 80.8014C266.061 81.4686 266.562 81.919 267.014 81.807Z" fill="#080B09"/>
<path d="M257.707 79.7637L261.12 78.9798C261.177 78.9616 261.225 78.9232 261.256 78.8721C261.287 78.8207 261.298 78.7601 261.288 78.7012C261.25 78.601 261.192 78.5092 261.118 78.4317C261.044 78.3545 260.954 78.2928 260.856 78.2508C260.757 78.2089 260.651 78.1875 260.543 78.1875C260.436 78.1879 260.33 78.2101 260.231 78.2524L257.556 79.387C257.333 79.442 257.429 79.8326 257.707 79.7637Z" fill="#080B09"/>
<path d="M269.165 76.7074L264.721 78.1016C264.691 77.9627 264.691 77.819 264.72 77.6801C264.749 77.5412 264.807 77.4098 264.89 77.2943C264.973 77.1791 265.079 77.0826 265.202 77.011C265.324 76.9393 265.46 76.8942 265.601 76.8784L269.152 76.415C269.264 76.3877 269.332 76.6663 269.165 76.7074Z" fill="#080B09"/>
<path d="M262.702 81.1318L262.22 84.7335L263.491 85.3476" fill="#E56441"/>
<path d="M262.702 81.1318L262.22 84.7335L263.491 85.3476" stroke="#E56441" stroke-width="0.94666" stroke-linecap="round"/>
<path d="M266.085 144.282L255.063 147.448L253.715 154.246L256.223 161.77C256.223 161.77 257.986 160.583 257.619 157.814C257.251 155.044 266.565 155.123 268.272 151.641" fill="#FFCCB3"/>
<path d="M291.264 106.811C291.264 106.811 291.191 97.466 298.67 97.4648C303.687 97.4641 306.087 99.8183 306.727 107.165C307.174 112.301 307.498 140.483 307.498 140.483C307.498 140.483 308.76 153.345 297.859 153.585L266.385 152.642L265.675 143.84L293.111 141.103L291.264 106.811Z" fill="#FEBB94"/>
<path d="M268.504 105.643C268.504 105.643 271.342 104.834 270.882 102.044C270.434 99.2978 270.416 96.9138 271.317 97.2458C271.317 97.2458 272.111 98.6092 277.05 97.0939C281.957 95.6352 281.65 93.9501 281.65 93.9501C281.65 93.9501 282.344 93.3344 282.863 94.9149C283.381 96.4955 284.695 100.872 287.474 100.557L288.226 108.716L273.445 113.585C273.413 113.642 266.581 107.018 268.504 105.643Z" fill="#FEBB94"/>
<path d="M147.95 268.441H157.25" stroke="white" stroke-width="5" stroke-miterlimit="10" stroke-linecap="round"/>
<path opacity="0.5" d="M149.843 272.48H154.493" stroke="white" stroke-width="5" stroke-miterlimit="10" stroke-linecap="round"/>
<path d="M141.756 260.378L148.891 255.397L153.918 258.748L160.608 253.898" stroke="white" stroke-width="6.50414" stroke-linecap="round" stroke-linejoin="round"/>
<path d="M155.464 251.786H162.581V258.834" stroke="white" stroke-width="6.50414" stroke-linecap="round" stroke-linejoin="round"/>
<path d="M239.724 32.9408H212.144C211.807 32.9539 211.471 32.8878 211.164 32.7477C210.857 32.608 210.587 32.3979 210.375 32.1351C210.164 31.8719 210.016 31.5633 209.945 31.2328C209.874 30.9028 209.881 30.5609 209.965 30.2336L214.204 8.42054C214.368 7.67512 214.773 7.00498 215.358 6.5151C215.942 6.02525 216.673 5.74332 217.435 5.71352H245.014C245.351 5.7005 245.687 5.76659 245.994 5.90649C246.301 6.04638 246.571 6.2562 246.783 6.51921C246.995 6.78222 247.142 7.09113 247.213 7.42126C247.284 7.75138 247.277 8.09358 247.193 8.42054L242.954 30.2336C242.791 30.9792 242.385 31.6492 241.801 32.1391C241.216 32.629 240.486 32.9108 239.724 32.9408Z" fill="#1C85E8"/>
<path d="M220.805 11.6123L239.169 11.6159C239.302 11.6101 239.432 11.635 239.553 11.6885C239.674 11.742 239.78 11.8227 239.864 11.9241C239.948 12.0258 240.008 12.1457 240.038 12.2739C240.068 12.4026 240.068 12.5359 240.038 12.6645L239.787 14.0405C239.745 14.2404 239.657 14.4279 239.53 14.5882C239.404 14.7489 239.242 14.8779 239.057 14.965L228.996 19.8116C228.841 19.8939 228.667 19.9366 228.491 19.9354C228.315 19.9347 228.142 19.8899 227.987 19.8056L219.71 14.8122C219.559 14.7176 219.442 14.5783 219.373 14.4137C219.304 14.2487 219.289 14.067 219.329 13.8929L219.554 12.6606C219.615 12.3709 219.772 12.1101 219.999 11.9202C220.226 11.73 220.51 11.6216 220.805 11.6123Z" fill="white"/>
<path d="M219.894 16.6229L227.812 21.5941C227.92 21.6547 228.041 21.6867 228.165 21.6867C228.288 21.6867 228.409 21.6547 228.517 21.5941L238.251 16.6264C238.774 16.3593 239.302 16.6981 239.203 17.2382L237.756 25.1574C237.646 25.6778 237.364 26.1463 236.957 26.4878C236.549 26.8294 236.039 27.0241 235.507 27.0407L218.832 27.0375C218.596 27.0478 218.36 27.0031 218.143 26.9069C217.927 26.8108 217.736 26.6659 217.585 26.4835C217.433 26.3007 217.326 26.0858 217.272 25.8551C217.218 25.6243 217.218 25.3841 217.272 25.1534L218.719 17.2343C218.741 17.1084 218.792 16.9893 218.868 16.886C218.944 16.7827 219.043 16.6985 219.156 16.6395C219.27 16.5805 219.395 16.5481 219.524 16.5453C219.652 16.5421 219.779 16.5686 219.894 16.6229Z" fill="white"/>
<path d="M245.967 11.4264C249.12 11.4264 251.675 8.86851 251.675 5.7132C251.675 2.5579 249.12 0 245.967 0C242.815 0 240.259 2.5579 240.259 5.7132C240.259 8.86851 242.815 11.4264 245.967 11.4264Z" fill="#FF967C"/>
<path d="M246.367 132.085L251.099 139.123L248.576 127.099L246.367 132.085Z" fill="#FF967C"/>
<defs>
<linearGradient id="paint0_linear_2614_24665" x1="165.037" y1="68.4348" x2="172.271" y2="191.131" gradientUnits="userSpaceOnUse">
<stop stop-color="white"/>
<stop offset="1" stop-color="#94B9FF"/>
</linearGradient>
<linearGradient id="paint1_linear_2614_24665" x1="146.555" y1="104.672" x2="176.828" y2="316.683" gradientUnits="userSpaceOnUse">
<stop stop-color="white"/>
<stop offset="1" stop-color="#94B9FF"/>
</linearGradient>
<linearGradient id="paint2_linear_2614_24665" x1="224.773" y1="104.672" x2="255.046" y2="316.683" gradientUnits="userSpaceOnUse">
<stop stop-color="white"/>
<stop offset="1" stop-color="#94B9FF"/>
</linearGradient>
<linearGradient id="paint3_linear_2614_24665" x1="79.7973" y1="237.004" x2="87.1789" y2="327.792" gradientUnits="userSpaceOnUse">
<stop stop-color="white"/>
<stop offset="1" stop-color="#94B9FF"/>
</linearGradient>
</defs>
</svg>
